PathFileType	4	(X/Y/Z)	62_1_31_p1_0-302.trc
DataRate	CameraRate	NumFrames	NumMarkers	Units	OrigDataRate	OrigDataStartFrame	OrigNumFrames
48.0	48.0	6	27	m	48.0	37	303
Frame#	Time	RHip			RKnee			RAnkle			RBigToe			RSmallToe			RHeel			LHip			LKnee			LAnkle			LBigToe			LSmallToe			LHeel			Neck			Head			Nose			RShoulder			RElbow			RWrist			RThumb			RIndex			RPinky			LShoulder			LElbow			LWrist			LThumb			LIndex			LPinky			
		X1	Y1	Z1	X2	Y2	Z2	X3	Y3	Z3	X4	Y4	Z4	X5	Y5	Z5	X6	Y6	Z6	X7	Y7	Z7	X8	Y8	Z8	X9	Y9	Z9	X10	Y10	Z10	X11	Y11	Z11	X12	Y12	Z12	X13	Y13	Z13	X14	Y14	Z14	X15	Y15	Z15	X16	Y16	Z16	X17	Y17	Z17	X18	Y18	Z18	X19	Y19	Z19	X20	Y20	Z20	X21	Y21	Z21	X22	Y22	Z22	X23	Y23	Z23	X24	Y24	Z24	X25	Y25	Z25	X26	Y26	Z26	X27	Y27	Z27	
37	0.7708333333333334	0.2988932045075566	0.4346299080673693	0.25851373027998814	0.320623057051828	0.7575791581661137	0.5211247237755486	0.33772039211247556	1.0703180139459822	0.8001348657330037	0.2811330787572978	0.9316449190930116	0.9482074136728696	0.35509751268266765	0.9436450973125301	0.9346121464231707	0.3413199016862036	1.178070566116477	0.829275352278601	0.09131083298327704	0.4982323123056563	0.220025347352881	0.13623712488225118	0.7946048738995756	0.4893311784816428	0.14653141592338598	1.0614599038904264	0.7856564861092404	0.11900617407605449	0.9227137456892959	0.9198447834652204	0.07914957306130387	0.9822062305453043	0.8883223821599778	0.18331114514887306	1.1214620589677002	0.8063719775879614	0.18080671721544803	0.06629537445316207	-0.1933434702819285	0.1554069732507851	-0.10017363781308071	-0.3736883354120311	0.14746957651436307	-0.05962242042532499	-0.2426095120440778	0.343369709212549	0.11210155911808108	-0.11288899651460968	0.3547807479382478	0.21374000009375657	0.1572912140660809	0.21246525024311716	0.21657115615461714	0.3521911822691602	0.10953284999724118	0.2716058477868373	0.3755984760443806	0.10735497223824877	0.29390631087565455	0.38848403390731495	0.13086827402928883	0.29106461260780614	0.40768266327204195	0.04726333692924418	0.18792632888149488	-0.16480027100410083	0.017431121385790876	0.32701008746865506	0.0707315193877026	0.08451176901233967	0.2546199972808545	0.3148334005242998	0.1094399919640671	0.2050691248624198	0.3985802244769639	0.1287547653252212	0.21792175674882175	0.4263555680504528	0.13381390668721616	0.2482955648683038	0.4077559260854946
38	0.7916666666666666	0.2989116418373218	0.4346081026700576	0.25843433215099865	0.3204587693810328	0.7559718641858695	0.5175153738118081	0.33904659810968496	1.0756295291960327	0.8082877961521354	0.28116740278045643	0.9317544920621629	0.9482710123547865	0.35504562252471816	0.943741372990532	0.9346653984899502	0.3407908688033519	1.1766935052574805	0.8296655989535812	0.09371722461613724	0.48780469371759466	0.22824866332071286	0.14001371682617925	0.7941864840221728	0.48619837600318105	0.14650980206737577	1.0615170648393437	0.785690475837784	0.11898162264597649	0.9227600399572619	0.9199112922067127	0.07909818544170494	0.9824562782984193	0.8884107639756896	0.18308160034826607	1.1213616770181267	0.8066158832941444	0.17638131872736704	0.06772662716470923	-0.19009503725754037	0.15519757113388322	-0.1003195267088165	-0.3735970407822176	0.14720071634820128	-0.058245900101860634	-0.23977753938779842	0.3391845907773682	0.11213601809564785	-0.11276428220840234	0.3516632803250086	0.21836064310143008	0.16295477994921925	0.20772856431550524	0.21354186050197582	0.3492753320885032	0.1043834322569543	0.24322002771236817	0.3762172723083684	0.09737137716067831	0.28114368256448796	0.3883356338656746	0.11646633283810225	0.29229565763725807	0.4040510590734618	0.04727548991119122	0.18805648566157088	-0.16483815195548732	0.01798318597132148	0.33157316842904583	0.07688864636845164	0.08449676293913053	0.252266922822708	0.31203262730065545	0.1029534277226537	0.188308702132268	0.3926386201183703	0.12286789512226007	0.2066406644252347	0.4255954295626336	0.13372209874291244	0.2480162910778931	0.4077578991289477
39	0.8125	0.2997917973525077	0.42068722696696104	0.26359238042645244	0.32040957614746274	0.7558503942822692	0.5172971974987821	0.33921783449450643	1.0760776827226934	0.8083205924939311	0.2811483854841953	0.9318147563766072	0.9486422402537781	0.35478599390379256	0.943333607460418	0.9352432205995527	0.34195912859408345	1.17941215043682	0.8291963593056214	0.09870948405315369	0.49613747223917204	0.22079479650370581	0.1389978256688561	0.7913415491963877	0.4852375181925257	0.1464347129625805	1.061353799167697	0.7858839533165528	0.11892543249676758	0.9224392845322004	0.9199932972362569	0.07904908525883507	0.9823546470133313	0.8886000310398487	0.1845957844105134	1.126913805242839	0.8137868450028105	0.17634490900219935	0.06944906971685354	-0.18709683423615703	0.15111881620923134	-0.09936375326868101	-0.3703116813960532	0.14723269454728044	-0.059807661474074396	-0.2424236659528454	0.33293934120245017	0.10322206764007827	-0.1072874730847985	0.34679921854148393	0.21682523810217144	0.16416120675644597	0.20838330503214522	0.21522909205322438	0.34917697692915917	0.09361126500307938	0.22515841623950356	0.3706928589967959	0.08863025870782436	0.27390312605905925	0.37849753029751226	0.11075256652242182	0.3011438313190462	0.39671008541400926	0.047947051983633734	0.19289149482143736	-0.15936887658566648	0.017702728135640857	0.32942477516890056	0.07429727413967933	0.07718036009632331	0.2590702836466671	0.30567493886315816	0.08614360181061712	0.1570484869201818	0.39378992906784627	0.1066460436302683	0.18097132881300879	0.4227462248115612	0.13336424362952698	0.24754396652500366	0.40729972862426217
40	0.8333333333333334	0.2954837564984643	0.42010215567867354	0.26329328033073635	0.3266214249889869	0.7637283958344561	0.5113515650427343	0.33961818715134096	1.0574042138444717	0.8111018404211995	0.2812276477098344	0.9319518057089442	0.9488086630277855	0.3547995448835866	0.9433261976090105	0.9353424835789569	0.34195179754308913	1.180016558988699	0.8289698679780244	0.09885422804602506	0.49601042422116487	0.22074538792711207	0.13907204685361677	0.792635126463699	0.4881122443717985	0.14795132141565054	1.0439984455006852	0.7884795912592543	0.11474858894705099	0.8925867403831242	0.9232349778467314	0.0790938942140441	0.981993058385169	0.8885094961661054	0.18425156830504813	1.1246799210212488	0.8095752934269043	0.17611985611432351	0.06914318257934579	-0.18706614228850774	0.14594800086574314	-0.10648046946802588	-0.36491941524225674	0.14697375803784682	-0.05851681559047256	-0.2395685209232021	0.33278027051799136	0.10301355755948827	-0.10735866267504898	0.3503187474599573	0.2111989051205149	0.15459056172388622	0.1968526252915343	0.2145309277850292	0.3451321344567285	0.08758809493285064	0.20339765786627173	0.37783896823505	0.07939281511391971	0.25069951282594294	0.38533366002449415	0.1061174168435236	0.29888191601654424	0.3963241837615612	0.047382525085100165	0.1899096938655765	-0.16211481813975173	0.017152979314426216	0.326829159206804	0.07194457498214413	0.07793385802834263	0.2626439915781848	0.3076683577332902	0.07692279444415147	0.14564420801956224	0.39430883319336374	0.0970100471632421	0.16442869623921627	0.42815661145215367	0.12831589346040623	0.2561370261848776	0.4116714405941363
41	0.8541666666666666	0.30786586644854275	0.45639761590988187	0.24966173337062672	0.32602731061344015	0.7671391579083993	0.514391357233778	0.3396059811377345	1.0574183430417192	0.8112216395914104	0.273416525202572	0.9205721368457995	0.9532800576334766	0.3478081160342223	0.929198816106927	0.93664889687385	0.3416687972588339	1.1794464854005975	0.8292118444187426	0.11054284923546485	0.5116472309299	0.21721753670049598	0.13930207861364755	0.7927348492721444	0.4878594347226053	0.14643575544509443	1.061322872424635	0.7855999635653368	0.10989989387909331	0.8910354491139407	0.9231473604295994	0.0789728201336922	0.9818590888401998	0.8885585906284063	0.1843697187240007	1.1252471810378677	0.8093736778460514	0.16619932240878177	0.060191431362093865	-0.1813124723082087	0.1407140160489696	-0.10848228207089697	-0.3629127780104697	0.13202412407872396	-0.07533045773836271	-0.22804292099026693	0.3281100908014686	0.10455323733614087	-0.10409363995499855	0.3340185085433911	0.19607134290629036	0.1686578999561324	0.17104438438389197	0.1838008994162312	0.35267859693436093	0.065580290866431	0.19249432583912968	0.3938248935211726	0.05295667156385593	0.2211328901764171	0.3905333985279596	0.09115657390935009	0.29371564807033634	0.39142641412764917	0.04761630867888594	0.19281211342344784	-0.15932599854969365	0.018087631811285785	0.33861142699526003	0.07325606160675398	0.06050882438635107	0.26825116803508947	0.30490246659439474	0.0663922148001318	0.149740687413522	0.39579673645915747	0.06743928298640112	0.1575527632020901	0.42559137927416385	0.08926737329114613	0.2139161299370858	0.416354015863574
42	0.875	0.30792411700551364	0.4552497523895318	0.246294963060757	0.32600282751531373	0.7677668474428816	0.5138099886029743	0.33897544724790907	1.0614176976068097	0.8144903717152934	0.277790850006904	0.9210770263079865	0.953865341419037	0.3477658165147971	0.9292075193035737	0.9369077092551203	0.3412018043115946	1.1838750058259466	0.83228274793085	0.11489178012204461	0.537667368824578	0.20779331781174376	0.139725160521159	0.8008230851860738	0.4981653310145365	0.14790985303043144	1.044075300062698	0.7885174727754782	0.10976009763006893	0.8911823070252357	0.9227260552728563	0.0790732557526784	0.9818315802280466	0.8881419968298615	0.1843263859713009	1.1249168012135158	0.8094547686041896	0.16193999318063096	0.0595470537828316	-0.18091153495221374	0.13409091708505697	-0.10552314655409939	-0.3643812050426695	0.1201396856623872	-0.0816738446096284	-0.22330857783021427	0.328004232276555	0.10508820818576724	-0.10360884251023263	0.3272877824187228	0.20153049139969978	0.17034647369519815	0.15517813216741816	0.18428519115533024	0.3521003872772553	0.05317862921295582	0.2102888193142334	0.39787436103300927	0.051917430206759256	0.22557601979219624	0.3983299901258421	0.07209098088619184	0.27326594019839584	0.3940175224862961	0.03809738112597312	0.18701663451334827	-0.148010295023989	0.01846710085599052	0.3376241174171354	0.0695440211773208	0.05095216652329156	0.29697357375824845	0.29376049303033175	0.05574885521656682	0.20014243019939365	0.3843057893463764	0.05132624314627056	0.21144122028581627	0.4129619005767622	0.07247318471043465	0.253038608393611	0.4087353079610654
